<svg xmlns="http://www.w3.org/2000/svg" width="800" height="500" viewBox="0 0 800 500">
  <!-- Background -->
  <rect width="800" height="500" fill="#fff"/>

  <!-- Floor shadow -->
  <ellipse cx="400" cy="450" rx="280" ry="30" fill="#f0f0f0"/>

  <!-- Desk -->
  <rect x="150" y="320" width="500" height="12" rx="6" fill="#e0e0e0" stroke="#ccc" stroke-width="2"/>
  <!-- Desk legs -->
  <line x1="180" y1="332" x2="160" y2="420" stroke="#ccc" stroke-width="8" stroke-linecap="round"/>
  <line x1="620" y1="332" x2="640" y2="420" stroke="#ccc" stroke-width="8" stroke-linecap="round"/>

  <!-- Monitor -->
  <rect x="320" y="180" width="160" height="120" rx="8" fill="#fff" stroke="#666" stroke-width="3"/>
  <!-- Monitor screen -->
  <rect x="330" y="190" width="140" height="90" rx="4" fill="#f5f5f5"/>
  <!-- Monitor stand -->
  <rect x="385" y="300" width="30" height="20" fill="#999"/>
  <rect x="365" y="315" width="70" height="8" rx="4" fill="#999"/>

  <!-- 3D Cube on screen -->
  <g transform="translate(400, 235)">
    <!-- Cube back faces -->
    <polygon points="0,-25 25,-10 25,15 0,0" fill="#ddd" stroke="#999" stroke-width="1"/>
    <polygon points="0,-25 -25,-10 -25,15 0,0" fill="#e8e8e8" stroke="#999" stroke-width="1"/>
    <!-- Cube top -->
    <polygon points="0,-25 25,-10 0,5 -25,-10" fill="#f0f0f0" stroke="#999" stroke-width="1"/>
    <!-- Cube front faces -->
    <polygon points="-25,-10 0,5 0,30 -25,15" fill="#ccc" stroke="#666" stroke-width="1.5"/>
    <polygon points="25,-10 0,5 0,30 25,15" fill="#bbb" stroke="#666" stroke-width="1.5"/>
  </g>

  <!-- Floating UI panels - left -->
  <g transform="translate(180, 220)">
    <rect x="0" y="0" width="80" height="60" rx="6" fill="#fff" stroke="#ddd" stroke-width="2"/>
    <!-- Slider bars -->
    <rect x="10" y="15" width="40" height="6" rx="3" fill="#e0e0e0"/>
    <circle cx="35" cy="18" r="5" fill="#999"/>
    <rect x="10" y="30" width="40" height="6" rx="3" fill="#e0e0e0"/>
    <circle cx="25" cy="33" r="5" fill="#999"/>
    <rect x="10" y="45" width="40" height="6" rx="3" fill="#e0e0e0"/>
    <circle cx="40" cy="48" r="5" fill="#666"/>
  </g>

  <!-- Floating UI panels - right -->
  <g transform="translate(540, 200)">
    <rect x="0" y="0" width="90" height="80" rx="6" fill="#fff" stroke="#ddd" stroke-width="2"/>
    <!-- Grid dots -->
    <circle cx="20" cy="20" r="4" fill="#ccc"/>
    <circle cx="45" cy="20" r="4" fill="#999"/>
    <circle cx="70" cy="20" r="4" fill="#ccc"/>
    <circle cx="20" cy="45" r="4" fill="#999"/>
    <circle cx="45" cy="45" r="4" fill="#666"/>
    <circle cx="70" cy="45" r="4" fill="#999"/>
    <circle cx="20" cy="70" r="4" fill="#ccc"/>
    <circle cx="45" cy="70" r="4" fill="#999"/>
    <circle cx="70" cy="70" r="4" fill="#ccc"/>
  </g>

  <!-- Coffee mug -->
  <g transform="translate(560, 280)">
    <rect x="0" y="10" width="30" height="35" rx="4" fill="#fff" stroke="#999" stroke-width="2"/>
    <ellipse cx="15" cy="10" rx="15" ry="5" fill="#fff" stroke="#999" stroke-width="2"/>
    <!-- Handle -->
    <path d="M 30 18 Q 42 18 42 28 Q 42 38 30 38" fill="none" stroke="#999" stroke-width="2"/>
    <!-- Steam -->
    <path d="M 10 0 Q 5 -10 10 -15" fill="none" stroke="#ccc" stroke-width="2" stroke-linecap="round"/>
    <path d="M 20 0 Q 25 -12 20 -18" fill="none" stroke="#ccc" stroke-width="2" stroke-linecap="round"/>
  </g>

  <!-- Plant pot -->
  <g transform="translate(200, 270)">
    <rect x="0" y="20" width="35" height="30" rx="3" fill="#e0e0e0" stroke="#ccc" stroke-width="2"/>
    <!-- Leaves -->
    <ellipse cx="17" cy="10" rx="8" ry="12" fill="#ccc" transform="rotate(-20, 17, 10)"/>
    <ellipse cx="17" cy="8" rx="6" ry="10" fill="#bbb" transform="rotate(15, 17, 8)"/>
    <ellipse cx="17" cy="12" rx="5" ry="8" fill="#aaa"/>
  </g>

  <!-- Clock -->
  <circle cx="400" cy="100" r="30" fill="#fff" stroke="#ddd" stroke-width="2"/>
  <circle cx="400" cy="100" r="25" fill="#fff" stroke="#ccc" stroke-width="1"/>
  <!-- Clock hands -->
  <line x1="400" y1="100" x2="400" y2="82" stroke="#666" stroke-width="2" stroke-linecap="round"/>
  <line x1="400" y1="100" x2="415" y2="100" stroke="#999" stroke-width="2" stroke-linecap="round"/>
  <circle cx="400" cy="100" r="3" fill="#666"/>

  <!-- Floating geometric shapes -->
  <circle cx="140" cy="150" r="15" fill="none" stroke="#ddd" stroke-width="2"/>
  <rect x="640" y="130" width="25" height="25" rx="4" fill="none" stroke="#ddd" stroke-width="2" transform="rotate(15, 652, 142)"/>
  <polygon points="700,180 715,210 685,210" fill="none" stroke="#ddd" stroke-width="2"/>
</svg>
