<svg xmlns="http://www.w3.org/2000/svg" width="400" height="400" viewBox="0 0 400 400">
  <!-- Call to action: Friendly, inviting, 3D/spatial themed -->

  <!-- Background elements -->
  <circle cx="320" cy="80" r="40" fill="none" stroke="#eee" stroke-width="2"/>
  <rect x="40" y="300" width="50" height="50" rx="8" fill="none" stroke="#eee" stroke-width="2" transform="rotate(15, 65, 325)"/>

  <!-- Main floating 3D workspace -->
  <g transform="translate(200, 180)">
    <!-- Large isometric platform -->
    <polygon points="0,-60 120,0 0,60 -120,0" fill="#f5f5f5" stroke="#ccc" stroke-width="2"/>

    <!-- Small 3D objects on platform -->
    <!-- Cube 1 -->
    <g transform="translate(-50, -10)">
      <polygon points="0,-20 15,-10 15,5 0,-5" fill="#ddd" stroke="#bbb" stroke-width="1"/>
      <polygon points="0,-20 -15,-10 -15,5 0,-5" fill="#e8e8e8" stroke="#bbb" stroke-width="1"/>
      <polygon points="0,-20 15,-10 0,0 -15,-10" fill="#f0f0f0" stroke="#bbb" stroke-width="1"/>
    </g>

    <!-- Cylinder -->
    <g transform="translate(30, 5)">
      <ellipse cx="0" cy="15" rx="15" ry="6" fill="#ccc" stroke="#999" stroke-width="1"/>
      <rect x="-15" y="-10" width="30" height="25" fill="#ddd"/>
      <ellipse cx="0" cy="-10" rx="15" ry="6" fill="#e8e8e8" stroke="#999" stroke-width="1"/>
    </g>

    <!-- Sphere -->
    <g transform="translate(-10, 20)">
      <circle r="12" fill="#e0e0e0" stroke="#999" stroke-width="1"/>
      <ellipse cx="-3" cy="-3" rx="4" ry="3" fill="#f5f5f5" opacity="0.7"/>
    </g>
  </g>

  <!-- Floating UI elements around -->
  <!-- Left panel -->
  <g transform="translate(30, 120)">
    <rect width="60" height="80" rx="6" fill="#fff" stroke="#ddd" stroke-width="1.5"/>
    <rect x="10" y="15" width="40" height="6" rx="3" fill="#e8e8e8"/>
    <rect x="10" y="30" width="30" height="6" rx="3" fill="#ddd"/>
    <rect x="10" y="45" width="35" height="6" rx="3" fill="#e8e8e8"/>
    <circle cx="30" cy="65" r="8" fill="#ccc"/>
  </g>

  <!-- Right panel -->
  <g transform="translate(310, 150)">
    <rect width="60" height="60" rx="6" fill="#fff" stroke="#ddd" stroke-width="1.5"/>
    <!-- Mini grid -->
    <circle cx="18" cy="20" r="4" fill="#ccc"/>
    <circle cx="30" cy="20" r="4" fill="#999"/>
    <circle cx="42" cy="20" r="4" fill="#ccc"/>
    <circle cx="18" cy="35" r="4" fill="#999"/>
    <circle cx="30" cy="35" r="4" fill="#666"/>
    <circle cx="42" cy="35" r="4" fill="#999"/>
  </g>

  <!-- Cursor/pointer indicating interaction -->
  <g transform="translate(230, 260)">
    <path d="M 0,0 L 0,25 L 7,20 L 12,30 L 16,28 L 11,18 L 18,18 Z" fill="#999" stroke="#666" stroke-width="1"/>
  </g>

  <!-- Connection dots suggesting collaboration -->
  <circle cx="100" cy="80" r="6" fill="#ccc"/>
  <circle cx="140" cy="60" r="4" fill="#ddd"/>
  <circle cx="280" cy="90" r="5" fill="#ccc"/>
  <line x1="106" y1="80" x2="134" y2="62" stroke="#e8e8e8" stroke-width="1"/>

  <!-- Sparkle/highlight elements -->
  <g transform="translate(320, 280)">
    <line x1="-8" y1="0" x2="8" y2="0" stroke="#ddd" stroke-width="2" stroke-linecap="round"/>
    <line x1="0" y1="-8" x2="0" y2="8" stroke="#ddd" stroke-width="2" stroke-linecap="round"/>
  </g>
  <g transform="translate(70, 220)">
    <line x1="-5" y1="0" x2="5" y2="0" stroke="#e0e0e0" stroke-width="1.5" stroke-linecap="round"/>
    <line x1="0" y1="-5" x2="0" y2="5" stroke="#e0e0e0" stroke-width="1.5" stroke-linecap="round"/>
  </g>
</svg>
