<svg xmlns="http://www.w3.org/2000/svg" width="560" height="520" viewBox="0 0 560 520">
  <!-- Robotics & Automation: Robot arms, paths, assembly -->

  <!-- Main robot arm panel -->
  <g transform="translate(40, 30)">
    <rect width="280" height="240" rx="8" fill="#fff" stroke="#ddd" stroke-width="2"/>
    <!-- Large robot arm -->
    <g transform="translate(140, 200)">
      <!-- Base -->
      <rect x="-50" y="0" width="100" height="25" rx="5" fill="#999"/>
      <!-- Arm segment 1 -->
      <rect x="-15" y="-90" width="30" height="90" rx="5" fill="#ccc" stroke="#999" stroke-width="2"/>
      <!-- Joint 1 -->
      <circle cx="0" cy="-90" r="15" fill="#999"/>
      <!-- Arm segment 2 -->
      <rect x="-12" y="-155" width="24" height="65" rx="4" fill="#ddd" stroke="#999" stroke-width="1.5" transform="rotate(-35, 0, -90)"/>
      <!-- Joint 2 -->
      <circle cx="38" cy="-140" r="12" fill="#bbb"/>
      <!-- End effector / gripper -->
      <g transform="translate(58, -155)">
        <rect x="-8" y="0" width="16" height="20" rx="2" fill="#666"/>
        <rect x="-12" y="20" width="10" height="15" rx="1" fill="#999" transform="rotate(-15, -7, 20)"/>
        <rect x="2" y="20" width="10" height="15" rx="1" fill="#999" transform="rotate(15, 7, 20)"/>
      </g>
    </g>
  </g>

  <!-- Path planning panel -->
  <g transform="translate(340, 30)">
    <rect width="180" height="140" rx="8" fill="#fff" stroke="#ddd" stroke-width="2"/>
    <!-- Grid with path -->
    <g transform="translate(20, 20)">
      <!-- Grid dots -->
      <circle cx="20" cy="20" r="4" fill="#e0e0e0"/>
      <circle cx="60" cy="20" r="4" fill="#e0e0e0"/>
      <circle cx="100" cy="20" r="4" fill="#e0e0e0"/>
      <circle cx="140" cy="20" r="4" fill="#e0e0e0"/>
      <circle cx="20" cy="50" r="4" fill="#e0e0e0"/>
      <circle cx="60" cy="50" r="4" fill="#ccc"/>
      <circle cx="100" cy="50" r="4" fill="#ccc"/>
      <circle cx="140" cy="50" r="4" fill="#e0e0e0"/>
      <circle cx="20" cy="80" r="4" fill="#e0e0e0"/>
      <circle cx="60" cy="80" r="4" fill="#e0e0e0"/>
      <circle cx="100" cy="80" r="4" fill="#ccc"/>
      <circle cx="140" cy="80" r="4" fill="#e0e0e0"/>
      <!-- Path line -->
      <path d="M 20 20 L 60 50 L 100 50 L 100 80 L 140 80" fill="none" stroke="#999" stroke-width="2" stroke-dasharray="5,3"/>
      <!-- Start/end markers -->
      <circle cx="20" cy="20" r="6" fill="#666"/>
      <circle cx="140" cy="80" r="6" fill="#666"/>
    </g>
  </g>

  <!-- Assembly operation panel -->
  <g transform="translate(340, 190)">
    <rect width="180" height="140" rx="8" fill="#fff" stroke="#ddd" stroke-width="2"/>
    <!-- Parts coming together -->
    <g transform="translate(90, 70)">
      <!-- Part A -->
      <rect x="-60" y="-20" width="40" height="40" rx="4" fill="#e8e8e8" stroke="#ccc" stroke-width="1.5"/>
      <!-- Part B -->
      <rect x="20" y="-20" width="40" height="40" rx="4" fill="#ddd" stroke="#bbb" stroke-width="1.5"/>
      <!-- Assembly arrows -->
      <path d="M -15 0 L 15 0" stroke="#999" stroke-width="2"/>
      <polygon points="15,0 10,-4 10,4" fill="#999"/>
      <path d="M 15 0 L -15 0" stroke="#999" stroke-width="2"/>
      <polygon points="-15,0 -10,-4 -10,4" fill="#999"/>
    </g>
  </g>

  <!-- Sensors/Vision panel -->
  <g transform="translate(40, 290)">
    <rect width="180" height="140" rx="8" fill="#fff" stroke="#ddd" stroke-width="2"/>
    <!-- Camera/sensor view -->
    <g transform="translate(90, 70)">
      <!-- Camera housing -->
      <rect x="-40" y="-30" width="80" height="60" rx="6" fill="#e8e8e8" stroke="#ccc" stroke-width="1.5"/>
      <!-- Lens -->
      <circle cx="0" cy="0" r="20" fill="#ddd" stroke="#999" stroke-width="2"/>
      <circle cx="0" cy="0" r="12" fill="#ccc"/>
      <circle cx="0" cy="0" r="5" fill="#666"/>
      <!-- Detection rays -->
      <line x1="40" y1="-15" x2="65" y2="-30" stroke="#bbb" stroke-width="1" stroke-dasharray="3,2"/>
      <line x1="40" y1="0" x2="70" y2="0" stroke="#bbb" stroke-width="1" stroke-dasharray="3,2"/>
      <line x1="40" y1="15" x2="65" y2="30" stroke="#bbb" stroke-width="1" stroke-dasharray="3,2"/>
    </g>
  </g>

  <!-- Control system panel -->
  <g transform="translate(240, 350)">
    <rect width="280" height="130" rx="8" fill="#fff" stroke="#ddd" stroke-width="2"/>
    <!-- Control interface -->
    <g transform="translate(30, 30)">
      <!-- Sliders -->
      <rect x="0" y="0" width="100" height="10" rx="5" fill="#e8e8e8"/>
      <circle cx="70" cy="5" r="7" fill="#999"/>
      <rect x="0" y="25" width="100" height="10" rx="5" fill="#e8e8e8"/>
      <circle cx="45" cy="30" r="7" fill="#999"/>
      <rect x="0" y="50" width="100" height="10" rx="5" fill="#e8e8e8"/>
      <circle cx="85" cy="55" r="7" fill="#666"/>
    </g>
    <!-- Status indicators -->
    <g transform="translate(160, 30)">
      <circle cx="20" cy="15" r="10" fill="#ccc"/>
      <circle cx="60" cy="15" r="10" fill="#999"/>
      <circle cx="100" cy="15" r="10" fill="#ccc"/>
      <rect x="5" y="40" width="110" height="30" rx="4" fill="#e8e8e8" stroke="#ccc" stroke-width="1"/>
      <text x="60" y="60" font-family="sans-serif" font-size="9" fill="#777" text-anchor="middle">STATUS: OK</text>
    </g>
  </g>

  <!-- Decorative -->
  <circle cx="500" cy="480" r="15" fill="none" stroke="#eee" stroke-width="2"/>
</svg>
