<svg xmlns="http://www.w3.org/2000/svg" width="560" height="520" viewBox="0 0 560 520">
  <!-- Applications theme: Robotics, Simulation, Digital Twins, Manufacturing, Construction -->

  <!-- Robot arm panel - larger, repositioned -->
  <g transform="translate(20, 20)">
    <rect width="200" height="180" rx="8" fill="#fff" stroke="#ddd" stroke-width="2"/>
    <!-- Simple robot arm -->
    <g transform="translate(100, 140)">
      <!-- Base -->
      <rect x="-35" y="0" width="70" height="20" rx="4" fill="#999"/>
      <!-- Arm segment 1 -->
      <rect x="-12" y="-60" width="24" height="60" rx="4" fill="#ccc" stroke="#999" stroke-width="1.5"/>
      <!-- Joint -->
      <circle cx="0" cy="-60" r="12" fill="#999"/>
      <!-- Arm segment 2 -->
      <rect x="-10" y="-110" width="20" height="50" rx="3" fill="#ddd" stroke="#999" stroke-width="1.5" transform="rotate(-30, 0, -60)"/>
      <!-- End effector -->
      <circle cx="28" cy="-100" r="10" fill="#666"/>
    </g>
  </g>

  <!-- Simulation/Training panel - larger -->
  <g transform="translate(240, 20)">
    <rect width="180" height="140" rx="8" fill="#fff" stroke="#ddd" stroke-width="2"/>
    <!-- Grid floor perspective -->
    <g transform="translate(90, 100)">
      <line x1="-70" y1="0" x2="70" y2="0" stroke="#e0e0e0" stroke-width="1.5"/>
      <line x1="-60" y1="-15" x2="60" y2="-15" stroke="#e0e0e0" stroke-width="1.5"/>
      <line x1="-50" y1="-30" x2="50" y2="-30" stroke="#e0e0e0" stroke-width="1.5"/>
      <line x1="-40" y1="0" x2="-25" y2="-30" stroke="#e0e0e0" stroke-width="1"/>
      <line x1="0" y1="0" x2="0" y2="-30" stroke="#e0e0e0" stroke-width="1"/>
      <line x1="40" y1="0" x2="25" y2="-30" stroke="#e0e0e0" stroke-width="1"/>
    </g>
    <!-- Moving object -->
    <circle cx="90" cy="50" r="18" fill="none" stroke="#999" stroke-width="2.5"/>
    <circle cx="90" cy="50" r="7" fill="#999"/>
    <!-- Motion trail -->
    <path d="M 45 65 Q 68 42 90 50" fill="none" stroke="#ccc" stroke-width="2" stroke-dasharray="5,3"/>
  </g>

  <!-- Additional panel top-right -->
  <g transform="translate(440, 20)">
    <rect width="100" height="100" rx="8" fill="#fff" stroke="#ddd" stroke-width="2"/>
    <!-- Data visualization dots -->
    <circle cx="30" cy="30" r="6" fill="#ccc"/>
    <circle cx="50" cy="50" r="8" fill="#999"/>
    <circle cx="70" cy="35" r="5" fill="#bbb"/>
    <circle cx="40" cy="70" r="7" fill="#666"/>
    <circle cx="65" cy="75" r="5" fill="#ccc"/>
  </g>

  <!-- Digital Twin panel - larger, repositioned -->
  <g transform="translate(20, 220)">
    <rect width="260" height="180" rx="8" fill="#fff" stroke="#ddd" stroke-width="2"/>
    <!-- Building outline - physical -->
    <g transform="translate(50, 35)">
      <rect x="0" y="30" width="60" height="80" fill="none" stroke="#bbb" stroke-width="2"/>
      <rect x="8" y="45" width="18" height="25" fill="#e8e8e8"/>
      <rect x="34" y="45" width="18" height="25" fill="#e8e8e8"/>
      <rect x="18" y="85" width="24" height="25" fill="#ddd"/>
      <polygon points="0,30 30,8 60,30" fill="none" stroke="#bbb" stroke-width="2"/>
    </g>
    <!-- Mirror line -->
    <line x1="130" y1="25" x2="130" y2="155" stroke="#ccc" stroke-width="1.5" stroke-dasharray="6,6"/>
    <!-- Building outline - digital twin -->
    <g transform="translate(145, 35)">
      <rect x="0" y="30" width="60" height="80" fill="none" stroke="#999" stroke-width="2"/>
      <rect x="8" y="45" width="18" height="25" fill="#f5f5f5" stroke="#ccc" stroke-width="1"/>
      <rect x="34" y="45" width="18" height="25" fill="#f5f5f5" stroke="#ccc" stroke-width="1"/>
      <rect x="18" y="85" width="24" height="25" fill="#e8e8e8" stroke="#ccc" stroke-width="1"/>
      <polygon points="0,30 30,8 60,30" fill="none" stroke="#999" stroke-width="2"/>
      <!-- Data points -->
      <circle cx="17" cy="57" r="5" fill="#666"/>
      <circle cx="43" cy="57" r="5" fill="#666"/>
    </g>
  </g>

  <!-- Manufacturing/Construction panel - larger, repositioned -->
  <g transform="translate(300, 180)">
    <rect width="240" height="220" rx="8" fill="#fff" stroke="#ddd" stroke-width="2"/>
    <!-- Modular blocks stacking -->
    <g transform="translate(120, 180)">
      <!-- Bottom row -->
      <rect x="-70" y="-35" width="60" height="35" rx="3" fill="#ddd" stroke="#bbb" stroke-width="1.5"/>
      <rect x="10" y="-35" width="60" height="35" rx="3" fill="#ccc" stroke="#999" stroke-width="1.5"/>
      <!-- Middle row -->
      <rect x="-45" y="-80" width="60" height="35" rx="3" fill="#e0e0e0" stroke="#bbb" stroke-width="1.5"/>
      <rect x="25" y="-80" width="45" height="35" rx="3" fill="#ddd" stroke="#999" stroke-width="1.5"/>
      <!-- Top -->
      <rect x="-20" y="-115" width="50" height="25" rx="3" fill="#e8e8e8" stroke="#ccc" stroke-width="1.5"/>
    </g>
    <!-- Assembly arrows -->
    <path d="M 120 55 L 120 75" stroke="#999" stroke-width="2"/>
    <polygon points="115,75 120,85 125,75" fill="#999"/>
    <path d="M 85 90 L 100 105" stroke="#ccc" stroke-width="1.5"/>
    <path d="M 155 90 L 140 105" stroke="#ccc" stroke-width="1.5"/>
  </g>

  <!-- Decorative elements -->
  <circle cx="500" cy="430" r="20" fill="none" stroke="#eee" stroke-width="2"/>
  <rect x="40" y="430" width="30" height="30" rx="5" fill="none" stroke="#eee" stroke-width="2" transform="rotate(15, 55, 445)"/>
</svg>
