<svg xmlns="http://www.w3.org/2000/svg" width="1200" height="630" viewBox="0 0 1200 630">
  <!-- Blog header: Self-Sovereign Email -->

  <!-- Background -->
  <rect width="1200" height="630" fill="white"/>

  <!-- Title area -->
  <text x="600" y="55" font-family="sans-serif" font-size="26" fill="#333" text-anchor="middle" font-weight="bold">Self-Sovereign Email: AI-Powered Automation Levels</text>
  <text x="600" y="80" font-family="sans-serif" font-size="14" fill="#999" text-anchor="middle">Own your infrastructure. Automate intelligently.</text>

  <!-- Left side: Self-Sovereign Infrastructure -->
  <g transform="translate(60, 110)">
    <rect x="0" y="0" width="320" height="260" rx="8" fill="#f5f5f5" stroke="#999" stroke-width="2"/>
    <rect x="0" y="0" width="320" height="35" rx="8" fill="#e8e8e8"/>
    <rect x="0" y="25" width="320" height="10" fill="#e8e8e8"/>
    <text x="160" y="24" font-family="sans-serif" font-size="13" fill="#666" text-anchor="middle" font-weight="bold">SELF-SOVEREIGN INFRASTRUCTURE</text>

    <!-- Your Server Box -->
    <g transform="translate(20, 50)">
      <rect x="0" y="0" width="120" height="100" rx="4" fill="white" stroke="#999" stroke-width="1.5"/>
      <text x="60" y="18" font-family="sans-serif" font-size="10" fill="#666" text-anchor="middle" font-weight="bold">YOUR SYSTEMS</text>

      <!-- Server icon -->
      <rect x="35" y="30" width="50" height="35" rx="3" fill="#ddd" stroke="#999" stroke-width="1"/>
      <rect x="40" y="35" width="20" height="4" fill="#666"/>
      <circle cx="75" cy="37" r="3" fill="#0a0"/>
      <rect x="40" y="45" width="20" height="4" fill="#666"/>
      <circle cx="75" cy="47" r="3" fill="#0a0"/>
      <rect x="40" y="55" width="20" height="4" fill="#666"/>
      <circle cx="75" cy="57" r="3" fill="#0a0"/>

      <!-- Database cylinder -->
      <g transform="translate(40, 70)">
        <ellipse cx="20" cy="5" rx="20" ry="5" fill="#ddd" stroke="#999" stroke-width="1"/>
        <rect x="0" y="5" width="40" height="20" fill="#ddd" stroke="#999" stroke-width="1"/>
        <ellipse cx="20" cy="25" rx="20" ry="5" fill="#ccc" stroke="#999" stroke-width="1"/>
        <line x1="0" y1="5" x2="0" y2="25" stroke="#999" stroke-width="1"/>
        <line x1="40" y1="5" x2="40" y2="25" stroke="#999" stroke-width="1"/>
      </g>
    </g>

    <!-- Webhooks Arrow -->
    <g transform="translate(145, 90)">
      <path d="M 0 10 L 25 10" stroke="#58a6ff" stroke-width="2"/>
      <polygon points="30,10 22,5 22,15" fill="#58a6ff"/>
      <text x="15" y="30" font-family="sans-serif" font-size="8" fill="#58a6ff" text-anchor="middle">webhooks</text>
    </g>

    <!-- External Services -->
    <g transform="translate(180, 50)">
      <rect x="0" y="0" width="120" height="100" rx="4" fill="white" stroke="#ccc" stroke-width="1" stroke-dasharray="4,4"/>
      <text x="60" y="18" font-family="sans-serif" font-size="10" fill="#999" text-anchor="middle">EXTERNAL</text>

      <!-- Email icons -->
      <g transform="translate(20, 28)">
        <rect x="0" y="0" width="30" height="20" rx="2" fill="#f5f5f5" stroke="#ccc" stroke-width="1"/>
        <path d="M 0 0 L 15 12 L 30 0" stroke="#999" stroke-width="1" fill="none"/>
        <text x="15" y="35" font-family="sans-serif" font-size="7" fill="#999" text-anchor="middle">SMTP</text>
      </g>

      <g transform="translate(60, 28)">
        <rect x="0" y="0" width="30" height="20" rx="2" fill="#f5f5f5" stroke="#ccc" stroke-width="1"/>
        <rect x="5" y="5" width="20" height="3" fill="#ddd"/>
        <rect x="5" y="10" width="15" height="3" fill="#ddd"/>
        <text x="15" y="35" font-family="sans-serif" font-size="7" fill="#999" text-anchor="middle">CRM</text>
      </g>

      <g transform="translate(40, 68)">
        <rect x="0" y="0" width="30" height="20" rx="2" fill="#f5f5f5" stroke="#ccc" stroke-width="1"/>
        <rect x="8" y="5" width="14" height="10" fill="#ddd"/>
        <text x="15" y="35" font-family="sans-serif" font-size="7" fill="#999" text-anchor="middle">Analytics</text>
      </g>
    </g>

    <!-- Key benefits -->
    <g transform="translate(20, 165)">
      <circle cx="8" cy="8" r="6" fill="#58a6ff"/>
      <text x="8" y="11" font-family="sans-serif" font-size="8" fill="white" text-anchor="middle">1</text>
      <text x="22" y="12" font-family="sans-serif" font-size="10" fill="#666">Your data stays yours</text>
    </g>
    <g transform="translate(20, 185)">
      <circle cx="8" cy="8" r="6" fill="#58a6ff"/>
      <text x="8" y="11" font-family="sans-serif" font-size="8" fill="white" text-anchor="middle">2</text>
      <text x="22" y="12" font-family="sans-serif" font-size="10" fill="#666">Portable formats - no lock-in</text>
    </g>
    <g transform="translate(20, 205)">
      <circle cx="8" cy="8" r="6" fill="#58a6ff"/>
      <text x="8" y="11" font-family="sans-serif" font-size="8" fill="white" text-anchor="middle">3</text>
      <text x="22" y="12" font-family="sans-serif" font-size="10" fill="#666">Local processing for privacy</text>
    </g>
    <g transform="translate(20, 225)">
      <circle cx="8" cy="8" r="6" fill="#58a6ff"/>
      <text x="8" y="11" font-family="sans-serif" font-size="8" fill="white" text-anchor="middle">4</text>
      <text x="22" y="12" font-family="sans-serif" font-size="10" fill="#666">Swap components independently</text>
    </g>
  </g>

  <!-- Center: MCP Connection -->
  <g transform="translate(395, 180)">
    <rect x="0" y="0" width="100" height="120" rx="8" fill="#58a6ff" stroke="#3d8bdb" stroke-width="2"/>
    <text x="50" y="25" font-family="sans-serif" font-size="11" fill="white" text-anchor="middle" font-weight="bold">MCP</text>
    <text x="50" y="40" font-family="sans-serif" font-size="8" fill="white" text-anchor="middle" opacity="0.9">Model Context</text>
    <text x="50" y="50" font-family="sans-serif" font-size="8" fill="white" text-anchor="middle" opacity="0.9">Protocol</text>

    <!-- AI brain icon -->
    <g transform="translate(30, 58)">
      <circle cx="20" cy="20" r="18" fill="white" stroke="#3d8bdb" stroke-width="1.5"/>
      <!-- Neural network pattern -->
      <circle cx="12" cy="14" r="3" fill="#58a6ff"/>
      <circle cx="28" cy="14" r="3" fill="#58a6ff"/>
      <circle cx="20" cy="24" r="3" fill="#58a6ff"/>
      <circle cx="12" cy="28" r="2" fill="#58a6ff"/>
      <circle cx="28" cy="28" r="2" fill="#58a6ff"/>
      <line x1="12" y1="14" x2="20" y2="24" stroke="#58a6ff" stroke-width="1"/>
      <line x1="28" y1="14" x2="20" y2="24" stroke="#58a6ff" stroke-width="1"/>
      <line x1="12" y1="14" x2="28" y2="14" stroke="#58a6ff" stroke-width="1"/>
      <line x1="12" y1="28" x2="20" y2="24" stroke="#58a6ff" stroke-width="1"/>
      <line x1="28" y1="28" x2="20" y2="24" stroke="#58a6ff" stroke-width="1"/>
    </g>
  </g>

  <!-- Connection arrows to MCP -->
  <path d="M 380 240 L 395 240" stroke="#58a6ff" stroke-width="2"/>
  <path d="M 495 240 L 510 240" stroke="#58a6ff" stroke-width="2"/>

  <!-- Right side: Automation Levels -->
  <g transform="translate(520, 110)">
    <rect x="0" y="0" width="620" height="260" rx="8" fill="#f5f5f5" stroke="#999" stroke-width="2"/>
    <rect x="0" y="0" width="620" height="35" rx="8" fill="#e8e8e8"/>
    <rect x="0" y="25" width="620" height="10" fill="#e8e8e8"/>
    <text x="310" y="24" font-family="sans-serif" font-size="13" fill="#666" text-anchor="middle" font-weight="bold">AI AUTOMATION LEVELS</text>

    <!-- Level 0 -->
    <g transform="translate(15, 50)">
      <rect x="0" y="0" width="115" height="90" rx="4" fill="white" stroke="#ccc" stroke-width="1"/>
      <rect x="0" y="0" width="115" height="22" rx="4" fill="#f5f5f5"/>
      <rect x="0" y="18" width="115" height="4" fill="#f5f5f5"/>
      <text x="57" y="15" font-family="sans-serif" font-size="10" fill="#666" text-anchor="middle" font-weight="bold">LEVEL 0</text>

      <!-- Manual icon -->
      <g transform="translate(35, 32)">
        <rect x="0" y="0" width="30" height="20" rx="2" fill="#f5f5f5" stroke="#ccc" stroke-width="1"/>
        <path d="M 0 0 L 15 10 L 30 0" stroke="#999" stroke-width="1" fill="none"/>
        <text x="15" y="35" font-family="sans-serif" font-size="7" fill="#999" text-anchor="middle">Human</text>
        <text x="15" y="43" font-family="sans-serif" font-size="7" fill="#999" text-anchor="middle">writes all</text>
      </g>

      <text x="57" y="80" font-family="sans-serif" font-size="9" fill="#666" text-anchor="middle">Manual</text>
    </g>

    <!-- Arrow -->
    <path d="M 135 95 L 150 95" stroke="#ccc" stroke-width="2"/>
    <polygon points="155,95 147,90 147,100" fill="#ccc"/>

    <!-- Level 1 -->
    <g transform="translate(135, 50)">
      <rect x="25" y="0" width="115" height="90" rx="4" fill="white" stroke="#ccc" stroke-width="1"/>
      <rect x="25" y="0" width="115" height="22" rx="4" fill="#e8f4ff"/>
      <rect x="25" y="18" width="115" height="4" fill="#e8f4ff"/>
      <text x="82" y="15" font-family="sans-serif" font-size="10" fill="#58a6ff" text-anchor="middle" font-weight="bold">LEVEL 1</text>

      <!-- Template icon -->
      <g transform="translate(55, 30)">
        <rect x="0" y="0" width="25" height="18" fill="#f5f5f5" stroke="#58a6ff" stroke-width="1"/>
        <rect x="3" y="4" width="12" height="2" fill="#58a6ff"/>
        <rect x="3" y="8" width="18" height="2" fill="#ccc"/>
        <rect x="3" y="12" width="15" height="2" fill="#ccc"/>

        <text x="28" y="25" font-family="sans-serif" font-size="7" fill="#58a6ff">AI suggests</text>
        <text x="28" y="33" font-family="sans-serif" font-size="7" fill="#58a6ff">templates</text>
      </g>

      <text x="82" y="80" font-family="sans-serif" font-size="9" fill="#58a6ff" text-anchor="middle">Template Match</text>
    </g>

    <!-- Arrow -->
    <path d="M 280 95 L 295 95" stroke="#ccc" stroke-width="2"/>
    <polygon points="300,95 292,90 292,100" fill="#ccc"/>

    <!-- Level 2 -->
    <g transform="translate(280, 50)">
      <rect x="25" y="0" width="115" height="90" rx="4" fill="white" stroke="#58a6ff" stroke-width="1.5"/>
      <rect x="25" y="0" width="115" height="22" rx="4" fill="#d4e9ff"/>
      <rect x="25" y="18" width="115" height="4" fill="#d4e9ff"/>
      <text x="82" y="15" font-family="sans-serif" font-size="10" fill="#3d8bdb" text-anchor="middle" font-weight="bold">LEVEL 2</text>

      <!-- Draft icon -->
      <g transform="translate(50, 28)">
        <rect x="0" y="0" width="28" height="22" fill="white" stroke="#58a6ff" stroke-width="1.5"/>
        <rect x="3" y="4" width="15" height="2" fill="#58a6ff"/>
        <rect x="3" y="8" width="20" height="2" fill="#58a6ff"/>
        <rect x="3" y="12" width="18" height="2" fill="#58a6ff"/>
        <rect x="3" y="16" width="12" height="2" fill="#58a6ff"/>

        <!-- Pencil -->
        <g transform="translate(24, -5)">
          <rect x="0" y="5" width="4" height="16" fill="#666" transform="rotate(-30 2 13)"/>
          <polygon points="0,21 2,25 4,21" fill="#ffc107" transform="rotate(-30 2 23)"/>
        </g>

        <text x="40" y="28" font-family="sans-serif" font-size="7" fill="#3d8bdb">AI drafts</text>
        <text x="40" y="36" font-family="sans-serif" font-size="7" fill="#3d8bdb">responses</text>
      </g>

      <text x="82" y="80" font-family="sans-serif" font-size="9" fill="#3d8bdb" text-anchor="middle">Draft Generation</text>
    </g>

    <!-- Arrow -->
    <path d="M 425 95 L 440 95" stroke="#ccc" stroke-width="2"/>
    <polygon points="445,95 437,90 437,100" fill="#ccc"/>

    <!-- Level 3 -->
    <g transform="translate(425, 50)">
      <rect x="25" y="0" width="115" height="90" rx="4" fill="white" stroke="#3d8bdb" stroke-width="2"/>
      <rect x="25" y="0" width="115" height="22" rx="4" fill="#b8daff"/>
      <rect x="25" y="18" width="115" height="4" fill="#b8daff"/>
      <text x="82" y="15" font-family="sans-serif" font-size="10" fill="#2070b0" text-anchor="middle" font-weight="bold">LEVEL 3</text>

      <!-- Auto-send icon -->
      <g transform="translate(45, 26)">
        <rect x="0" y="0" width="30" height="20" rx="2" fill="#3d8bdb" stroke="#2070b0" stroke-width="1"/>
        <path d="M 0 0 L 15 10 L 30 0" stroke="white" stroke-width="1.5" fill="none"/>

        <!-- Check mark -->
        <circle cx="38" cy="10" r="8" fill="#28a745"/>
        <path d="M 34 10 L 37 13 L 43 6" stroke="white" stroke-width="2" fill="none"/>

        <text x="22" y="35" font-family="sans-serif" font-size="7" fill="#2070b0">Autonomous</text>
        <text x="22" y="43" font-family="sans-serif" font-size="7" fill="#2070b0">with guardrails</text>
      </g>

      <text x="82" y="80" font-family="sans-serif" font-size="9" fill="#2070b0" text-anchor="middle">Auto Response</text>
    </g>

    <!-- Arrow -->
    <path d="M 570 95 L 585 95" stroke="#ccc" stroke-width="2"/>
    <polygon points="590,95 582,90 582,100" fill="#ccc"/>

    <!-- Level 4 -->
    <g transform="translate(550, 50)">
      <rect x="45" y="0" width="115" height="90" rx="4" fill="#58a6ff" stroke="#3d8bdb" stroke-width="2"/>
      <rect x="45" y="0" width="115" height="22" rx="4" fill="#3d8bdb"/>
      <rect x="45" y="18" width="115" height="4" fill="#3d8bdb"/>
      <text x="102" y="15" font-family="sans-serif" font-size="10" fill="white" text-anchor="middle" font-weight="bold">LEVEL 4</text>

      <!-- Proactive icon -->
      <g transform="translate(70, 26)">
        <!-- Lightbulb -->
        <ellipse cx="15" cy="12" rx="12" ry="14" fill="#ffc107" stroke="#f0b000" stroke-width="1"/>
        <rect x="10" y="25" width="10" height="6" fill="#ddd" stroke="#ccc" stroke-width="1"/>
        <path d="M 8 10 Q 15 0, 22 10" stroke="white" stroke-width="2" fill="none"/>

        <!-- Outgoing arrows -->
        <path d="M 30 5 L 40 0" stroke="white" stroke-width="1.5"/>
        <polygon points="42,-2 36,2 38,6" fill="white"/>
        <path d="M 30 20 L 40 25" stroke="white" stroke-width="1.5"/>
        <polygon points="42,27 36,23 38,19" fill="white"/>

        <text x="18" y="50" font-family="sans-serif" font-size="7" fill="white">Proactive</text>
        <text x="18" y="58" font-family="sans-serif" font-size="7" fill="white">outreach</text>
      </g>

      <text x="102" y="80" font-family="sans-serif" font-size="9" fill="white" text-anchor="middle">Proactive AI</text>
    </g>

    <!-- Description row -->
    <g transform="translate(15, 155)">
      <rect x="0" y="0" width="590" height="85" rx="4" fill="white" stroke="#ccc" stroke-width="1"/>

      <g transform="translate(15, 15)">
        <text x="0" y="0" font-family="sans-serif" font-size="10" fill="#666" font-weight="bold">Progressive Automation:</text>
        <text x="0" y="18" font-family="sans-serif" font-size="9" fill="#999">Level 1: AI recognizes patterns, suggests templates. Human approves.</text>
        <text x="0" y="33" font-family="sans-serif" font-size="9" fill="#999">Level 2: AI writes context-aware drafts. Human reviews before send.</text>
        <text x="0" y="48" font-family="sans-serif" font-size="9" fill="#999">Level 3: AI handles routine responses autonomously within defined guardrails.</text>
        <text x="0" y="63" font-family="sans-serif" font-size="9" fill="#999">Level 4: AI identifies opportunities and initiates outreach proactively.</text>
      </g>
    </g>
  </g>

  <!-- WellKnown Integration Section -->
  <g transform="translate(60, 390)">
    <rect x="0" y="0" width="1080" height="120" rx="8" fill="#f5f5f5" stroke="#999" stroke-width="2"/>
    <rect x="0" y="0" width="1080" height="35" rx="8" fill="#e8e8e8"/>
    <rect x="0" y="25" width="1080" height="10" fill="#e8e8e8"/>
    <text x="540" y="24" font-family="sans-serif" font-size="13" fill="#666" text-anchor="middle" font-weight="bold">WELLKNOWN: SINGLE SOURCE PUBLISHING TO EMAIL</text>

    <!-- Markdown source -->
    <g transform="translate(30, 50)">
      <rect x="0" y="0" width="100" height="55" rx="3" fill="white" stroke="#999" stroke-width="1.5"/>
      <rect x="5" y="5" width="60" height="5" fill="#666"/>
      <rect x="5" y="14" width="80" height="4" fill="#ddd"/>
      <rect x="5" y="22" width="70" height="4" fill="#ddd"/>
      <rect x="5" y="30" width="85" height="4" fill="#ddd"/>
      <rect x="5" y="38" width="50" height="4" fill="#ddd"/>
      <text x="50" y="55" font-family="sans-serif" font-size="8" fill="#666" text-anchor="middle">Markdown Source</text>
    </g>

    <!-- Arrow -->
    <path d="M 140 77 L 170 77" stroke="#58a6ff" stroke-width="2"/>
    <polygon points="175,77 167,72 167,82" fill="#58a6ff"/>

    <!-- WellKnown Transform -->
    <g transform="translate(185, 50)">
      <rect x="0" y="0" width="80" height="55" rx="3" fill="#58a6ff" stroke="#3d8bdb" stroke-width="1.5"/>
      <text x="40" y="25" font-family="sans-serif" font-size="10" fill="white" text-anchor="middle" font-weight="bold">WellKnown</text>
      <text x="40" y="40" font-family="sans-serif" font-size="8" fill="white" text-anchor="middle" opacity="0.9">Transform</text>
    </g>

    <!-- Multiple arrows out -->
    <path d="M 275 60 L 320 45" stroke="#58a6ff" stroke-width="2"/>
    <polygon points="325,43 315,43 318,52" fill="#58a6ff"/>
    <path d="M 275 77 L 320 77" stroke="#58a6ff" stroke-width="2"/>
    <polygon points="325,77 317,72 317,82" fill="#58a6ff"/>
    <path d="M 275 94 L 320 109" stroke="#58a6ff" stroke-width="2"/>
    <polygon points="325,111 318,102 315,111" fill="#58a6ff"/>

    <!-- Output: Website -->
    <g transform="translate(335, 30)">
      <rect x="0" y="0" width="70" height="35" rx="2" fill="white" stroke="#ccc" stroke-width="1"/>
      <rect x="0" y="0" width="70" height="10" rx="2" fill="#f5f5f5"/>
      <rect x="5" y="15" width="40" height="4" fill="#ddd"/>
      <rect x="5" y="22" width="55" height="4" fill="#ddd"/>
      <text x="35" y="50" font-family="sans-serif" font-size="8" fill="#666" text-anchor="middle">Website</text>
    </g>

    <!-- Output: Newsletter -->
    <g transform="translate(335, 62)">
      <rect x="0" y="0" width="70" height="35" rx="2" fill="white" stroke="#999" stroke-width="1.5"/>
      <path d="M 0 0 L 35 18 L 70 0" stroke="#58a6ff" stroke-width="1.5" fill="none"/>
      <text x="35" y="50" font-family="sans-serif" font-size="8" fill="#58a6ff" text-anchor="middle" font-weight="bold">Newsletter</text>
    </g>

    <!-- Output: RSS -->
    <g transform="translate(335, 95)">
      <rect x="0" y="0" width="70" height="30" rx="2" fill="white" stroke="#ccc" stroke-width="1"/>
      <circle cx="20" cy="15" r="8" fill="none" stroke="#f90" stroke-width="2"/>
      <circle cx="20" cy="15" r="3" fill="#f90"/>
      <rect x="35" y="10" width="25" height="3" fill="#ddd"/>
      <rect x="35" y="17" width="20" height="3" fill="#ddd"/>
      <text x="35" y="42" font-family="sans-serif" font-size="8" fill="#666" text-anchor="middle">RSS Feed</text>
    </g>

    <!-- Publish schedule -->
    <g transform="translate(440, 50)">
      <rect x="0" y="0" width="140" height="55" rx="3" fill="white" stroke="#999" stroke-width="1"/>
      <text x="70" y="15" font-family="sans-serif" font-size="9" fill="#666" text-anchor="middle" font-weight="bold">Scheduled Publishing</text>
      <text x="10" y="30" font-family="monospace" font-size="7" fill="#58a6ff">date: 2024-12-20T09:00Z</text>
      <text x="10" y="40" font-family="monospace" font-size="7" fill="#999">channels: [web, email]</text>
      <text x="10" y="50" font-family="monospace" font-size="7" fill="#999">segments: [early-access]</text>
    </g>

    <!-- Arrow to automation -->
    <path d="M 590 77 L 620 77" stroke="#ccc" stroke-width="2"/>
    <polygon points="625,77 617,72 617,82" fill="#ccc"/>

    <!-- AI Automation -->
    <g transform="translate(635, 45)">
      <rect x="0" y="0" width="200" height="65" rx="4" fill="#58a6ff" stroke="#3d8bdb" stroke-width="1.5"/>
      <text x="100" y="18" font-family="sans-serif" font-size="10" fill="white" text-anchor="middle" font-weight="bold">Local AI + MCP</text>
      <text x="100" y="35" font-family="sans-serif" font-size="8" fill="white" text-anchor="middle" opacity="0.9">Intelligent response automation</text>
      <text x="100" y="50" font-family="sans-serif" font-size="8" fill="white" text-anchor="middle" opacity="0.9">Context-aware draft generation</text>
    </g>

    <!-- Arrow to outcomes -->
    <path d="M 845 77 L 875 77" stroke="#58a6ff" stroke-width="2"/>
    <polygon points="880,77 872,72 872,82" fill="#58a6ff"/>

    <!-- Outcomes -->
    <g transform="translate(890, 45)">
      <rect x="0" y="0" width="160" height="65" rx="4" fill="white" stroke="#28a745" stroke-width="2"/>
      <text x="80" y="18" font-family="sans-serif" font-size="10" fill="#28a745" text-anchor="middle" font-weight="bold">OUTCOMES</text>
      <text x="80" y="35" font-family="sans-serif" font-size="8" fill="#666" text-anchor="middle">Data sovereignty maintained</text>
      <text x="80" y="48" font-family="sans-serif" font-size="8" fill="#666" text-anchor="middle">Costs scale with usage</text>
      <text x="80" y="61" font-family="sans-serif" font-size="8" fill="#666" text-anchor="middle">Progressive AI automation</text>
    </g>
  </g>

  <!-- Bottom indicator -->
  <g transform="translate(500, 530)">
    <rect x="0" y="0" width="200" height="30" rx="4" fill="#f5f5f5" stroke="#ccc" stroke-width="1"/>
    <text x="100" y="20" font-family="sans-serif" font-size="11" fill="#666" text-anchor="middle">Ubuntu Software Platform</text>
  </g>
</svg>
